<svg width="30" height="30" viewBox="0 0 30 30" fill="none" xmlns="http://www.w3.org/2000/svg">
<path d="M25 15C25 9.47731 20.523 4.99966 14.9997 4.99966C9.47697 4.99966 5 9.47731 5 15C5 19.9913 8.65694 24.1283 13.4376 24.8779V17.891H10.8982V15H13.4376V12.7964C13.4376 10.2905 14.9306 8.90624 17.2149 8.90624C18.3085 8.90624 19.4534 9.10184 19.4534 9.10184V11.5626H18.1922C16.9502 11.5626 16.5631 12.3334 16.5631 13.124V15H19.3357L18.8926 17.891H16.5631V24.8779C21.3431 24.1283 25 19.9913 25 15Z" fill="#707070"/>
<path d="M18.8928 17.8913L19.336 15.0003H16.5634V13.1243C16.5634 12.3337 16.9505 11.5629 18.1925 11.5629H19.4536V9.10217C19.4536 9.10217 18.3088 8.90657 17.2152 8.90657C14.9309 8.90657 13.4378 10.2908 13.4378 12.7967V15.0003H10.8984V17.8913H13.4378V24.8783C13.9467 24.9583 14.4685 25 14.9999 25C15.532 25 16.0532 24.9583 16.5634 24.8783V17.8913H18.8928Z" fill="black"/>
</svg>
