<svg width="30" height="30" viewBox="0 0 30 30" fill="none" xmlns="http://www.w3.org/2000/svg">
<path d="M25 14.9994C25 20.5228 20.5229 25 15 25C9.47712 25 5 20.5228 5 14.9994C5 9.4765 9.47712 4.99931 15 4.99931C20.5229 4.99931 25 9.4765 25 14.9994Z" fill="#707070"/>
<path d="M16.7431 15.1885L13.9902 16.5503C13.8814 16.6091 13.5148 16.531 13.5148 16.4081V13.6115C13.5148 13.4872 13.8842 13.4092 13.9922 13.4712L16.6282 14.9054C16.739 14.9681 16.8552 15.1276 16.7431 15.1885ZM20.3543 13.5455C20.3543 12.2195 19.2791 11.1442 17.9537 11.1442H11.8125C10.4863 11.1442 9.41113 12.2195 9.41113 13.5455V16.4028C9.41113 17.7293 10.4863 18.8047 11.8125 18.8047H17.9537C19.2791 18.8047 20.3543 17.7293 20.3543 16.4028V13.5455Z" fill="black"/>
</svg>
