<svg width="30" height="30" viewBox="0 0 30 30" fill="none" xmlns="http://www.w3.org/2000/svg">
<path d="M25 15C25 20.5229 20.5229 25 15 25C9.47712 25 5 20.5229 5 15C5 9.47644 9.47712 4.99999 15 4.99999C20.5229 4.99999 25 9.47644 25 15Z" fill="#707070"/>
<path d="M18.1044 11.2164C17.7255 11.2164 17.417 11.5242 17.417 11.9037C17.417 12.2833 17.7255 12.5918 18.1044 12.5918C18.4846 12.5918 18.7924 12.2833 18.7924 11.9037C18.7924 11.5242 18.4846 11.2164 18.1044 11.2164Z" fill="black"/>
<path d="M15.0481 16.8355C14.0283 16.8355 13.1987 16.0052 13.1987 14.9854C13.1987 13.9656 14.0283 13.136 15.0481 13.136C16.0685 13.136 16.8982 13.9656 16.8982 14.9854C16.8982 16.0052 16.0685 16.8355 15.0481 16.8355ZM15.0481 12.0978C13.4558 12.0978 12.1611 13.3932 12.1611 14.9854C12.1611 16.5776 13.4558 17.873 15.0481 17.873C16.641 17.873 17.9357 16.5776 17.9357 14.9854C17.9357 13.3932 16.641 12.0978 15.0481 12.0978Z" fill="black"/>
<path d="M12.6593 10.2262C11.3256 10.2262 10.2409 11.311 10.2409 12.6454V17.3263C10.2409 18.6607 11.3256 19.7454 12.6593 19.7454H17.341C18.6747 19.7454 19.7601 18.6607 19.7601 17.3263V12.6454C19.7601 11.311 18.6747 10.2262 17.341 10.2262H12.6593ZM17.341 20.8486H12.6593C10.7176 20.8486 9.1377 19.2687 9.1377 17.3263V12.6454C9.1377 10.7029 10.7176 9.12302 12.6593 9.12302H17.341C19.2834 9.12302 20.8626 10.7029 20.8626 12.6454V17.3263C20.8626 19.2687 19.2834 20.8486 17.341 20.8486Z" fill="black"/>
</svg>
