<svg width="201" height="62" viewBox="0 0 201 62" fill="none" xmlns="http://www.w3.org/2000/svg">
<g clip-path="url(#clip0)">
<path d="M160.283 62.0001H153.77C152.871 62.0001 152.146 61.2754 152.146 60.3773C152.146 59.4792 152.871 58.7544 153.77 58.7544H160.283C161.182 58.7544 161.907 59.4792 161.907 60.3773C161.907 61.2596 161.182 62.0001 160.283 62.0001Z" fill="#A18A70"/>
<path d="M166.795 55.4772H160.282C159.384 55.4772 158.658 54.7524 158.658 53.8543C158.658 52.9562 159.384 52.2314 160.282 52.2314H166.795C167.694 52.2314 168.42 52.9562 168.42 53.8543C168.42 54.7524 167.694 55.4772 166.795 55.4772Z" fill="#A18A70"/>
<path d="M173.309 48.9699H166.796C165.897 48.9699 165.172 48.2451 165.172 47.347C165.172 46.4489 165.897 45.7241 166.796 45.7241H173.309C174.208 45.7241 174.933 46.4489 174.933 47.347C174.933 48.2451 174.208 48.9699 173.309 48.9699Z" fill="#A18A70"/>
<path d="M179.821 42.4626H173.308C172.409 42.4626 171.684 41.7378 171.684 40.8397C171.684 39.9416 172.409 39.2168 173.308 39.2168H179.821C180.72 39.2168 181.445 39.9416 181.445 40.8397C181.445 41.7378 180.72 42.4626 179.821 42.4626Z" fill="#A18A70"/>
<path d="M186.334 35.9552H179.822C178.923 35.9552 178.197 35.2304 178.197 34.3323C178.197 33.4342 178.923 32.7095 179.822 32.7095H186.334C187.233 32.7095 187.959 33.4342 187.959 34.3323C187.959 35.2304 187.233 35.9552 186.334 35.9552Z" fill="#A18A70"/>
<path d="M192.847 29.4479H186.334C185.435 29.4479 184.71 28.7231 184.71 27.825C184.71 26.9269 185.435 26.2021 186.334 26.2021H192.847C193.746 26.2021 194.471 26.9269 194.471 27.825C194.487 28.7231 193.746 29.4479 192.847 29.4479Z" fill="#A18A70"/>
<path d="M199.375 22.9408H192.863C191.964 22.9408 191.238 22.216 191.238 21.3179C191.238 20.4198 191.964 19.6951 192.863 19.6951H199.375C200.274 19.6951 201 20.4198 201 21.3179C201 22.2003 200.274 22.9408 199.375 22.9408Z" fill="#A18A70"/>
<path d="M153.77 62H14.4604C13.7823 62 13.1673 61.5746 12.9308 60.9444C12.6942 60.2984 12.8835 59.5893 13.4039 59.1482L59.0097 20.089C59.3093 19.8369 59.6878 19.6951 60.0663 19.6951H192.863C193.525 19.6951 194.108 20.089 194.361 20.7035C194.613 21.3179 194.471 22.0112 194.014 22.4839L154.921 61.5116C154.605 61.8267 154.195 61.9843 153.77 62Z" fill="#F2EBDA"/>
<path d="M24.9011 57.8247L57.6074 25.1467C61.4552 21.4125 62.9533 15.8664 61.5025 10.6984C60.0517 5.53039 55.8885 1.57563 50.653 0.378171C45.4174 -0.819288 39.9454 0.945388 36.3972 4.96318L4.27441 36.9952L24.9011 57.8247Z" fill="#FFFAEC"/>
<path d="M29.315 47.347C29.315 55.4298 22.7548 62.0001 14.6492 62.0001C6.54357 62.0001 -0.0166016 55.4456 -0.0166016 47.347C-0.0166016 39.2641 6.54357 32.6938 14.6492 32.6938C22.7548 32.6938 29.315 39.2641 29.315 47.347Z" fill="#E0D9C7"/>
<path d="M19.5379 47.347C19.5379 50.0413 17.346 52.2314 14.6493 52.2314C11.9527 52.2314 9.76074 50.0413 9.76074 47.347C9.76074 44.6527 11.9527 42.4626 14.6493 42.4626C17.346 42.4626 19.5379 44.6527 19.5379 47.347Z" fill="#A18A70"/>
<path d="M118.282 28.3919C118.64 28.3919 118.964 28.2713 119.221 28.0401C119.478 27.809 119.612 27.5175 119.612 27.1959C119.612 26.8743 119.478 26.5828 119.221 26.3517C118.964 26.1205 118.64 25.9999 118.282 25.9999C117.924 25.9999 117.6 26.1205 117.343 26.3416C117.075 26.5728 116.93 26.8642 116.93 27.1858C116.93 27.5075 117.075 27.809 117.343 28.0301C117.611 28.2813 117.924 28.3919 118.282 28.3919Z" fill="#3D3125"/>
<path d="M79.122 23.4372C77.915 22.4824 76.3616 22 74.5064 22C71.8018 22 69.6337 22.8744 68.0802 24.6131C66.5491 26.3216 65.778 28.5226 65.778 31.1558C65.778 31.3769 65.8674 31.5879 66.0462 31.7688C66.2362 31.9497 66.482 32.0503 66.7614 32.0503C67.0408 32.0503 67.2867 31.9497 67.4767 31.7688C67.6555 31.598 67.7449 31.3869 67.7449 31.1558C67.7449 29.0452 68.3372 27.2663 69.5107 25.8693C70.6395 24.5226 72.1371 23.8492 74.0817 23.8191C73.9476 23.8894 73.8246 23.9799 73.6905 24.0804C73.1541 24.4724 72.7406 24.9347 72.4723 25.4472C71.9694 26.3317 71.2765 28.1106 70.3601 30.8945C70.0472 31.8392 69.8125 32.5528 69.656 33.0352C69.4884 33.5276 69.2537 34.1709 68.9519 34.9548C68.6502 35.7387 68.382 36.3417 68.1696 36.7538C67.9461 37.1658 67.6667 37.6482 67.3314 38.191C67.0073 38.7035 66.7056 39.0854 66.415 39.3266C66.1244 39.5678 65.7668 39.7789 65.3756 39.9598C64.9956 40.1206 64.6045 40.2111 64.191 40.2111C63.5428 40.2111 63.0175 40.0402 62.5928 39.6985C62.1793 39.3668 61.9781 38.9246 61.9781 38.3618C61.9781 37.7588 62.2017 37.2161 62.6711 36.7035C63.1181 36.2211 63.6098 35.9799 64.1574 35.9799C64.3698 35.9799 64.4257 36 64.4257 36L64.4592 36.01C64.7721 36.0905 65.0739 36.0402 65.3421 35.8593C65.5991 35.6784 65.7333 35.4372 65.7333 35.1558C65.7333 34.794 65.5321 34.201 64.2022 34.201C63.0622 34.201 62.0564 34.6332 61.2294 35.4774C60.4135 36.3116 60 37.2965 60 38.4121C60 39.4472 60.4023 40.3216 61.1958 40.995C61.9781 41.6583 62.984 42 64.1574 42C66.5379 42 68.5049 40.4724 70.0136 37.4472C70.416 36.6332 70.9524 35.2764 71.6006 33.397C71.6789 33.4472 71.7683 33.4975 71.8688 33.5276C72.7517 33.8392 73.6123 33.9899 74.4281 33.9899C76.328 33.9899 77.915 33.2965 79.1444 31.9397C80.3514 30.603 80.9549 29.0251 80.9549 27.2362C80.9661 25.6683 80.3514 24.402 79.122 23.4372ZM77.6803 30.6834C76.8198 31.6884 75.7916 32.1809 74.5175 32.1809C73.9364 32.1809 73.277 32.0603 72.5394 31.8291C72.4388 31.799 72.3271 31.7889 72.1929 31.7889C72.1706 31.7889 72.1594 31.7889 72.1371 31.7889C72.1818 31.6482 72.2377 31.4975 72.2824 31.3467C73.0758 28.8442 73.7352 27.1156 74.227 26.2312C74.6293 25.598 75.0428 25.2563 75.4563 25.206L75.501 25.196C76.0933 25.0754 76.3839 24.6834 76.3057 24.1709C76.2945 24.1206 76.2945 24.0804 76.2722 24.0402C76.831 24.191 77.3115 24.4121 77.725 24.6935C78.5632 25.2764 78.9656 26.0905 78.9656 27.196C78.9879 28.4824 78.5521 29.6583 77.6803 30.6834Z" fill="#3D3125"/>
<path d="M146.725 34.4523C146.524 34.2815 146.29 34.181 146.033 34.181C145.597 34.181 145.261 34.382 145.105 34.7337C144.401 36.2111 143.775 37.2865 143.239 37.9297C142.769 38.4925 142.3 38.7739 141.83 38.7739C141.707 38.7739 141.506 38.7739 141.506 38.2011C141.506 37.5981 141.83 36.5227 142.467 34.975C143.16 33.3167 143.484 32.1207 143.484 31.3066C143.484 29.6383 142.467 28.7237 140.612 28.7237C139.942 28.7237 139.26 28.9649 138.589 29.4373C138.232 29.6885 137.908 29.9599 137.606 30.2714C137.483 29.9599 137.293 29.6885 137.047 29.4473C136.544 28.975 135.851 28.7337 134.968 28.7337C134.376 28.7337 133.784 28.9348 133.191 29.3368C133.158 29.2765 133.124 29.2162 133.08 29.1559C132.878 28.9147 132.599 28.784 132.264 28.784C131.817 28.784 131.481 28.9951 131.325 29.377C130.889 30.4523 130.241 32.0905 129.324 34.392C129.235 34.6232 129.146 34.8443 129.056 35.0554C128.386 36.382 127.793 37.3569 127.29 37.9498C126.821 38.5026 126.363 38.784 125.905 38.784C125.782 38.784 125.581 38.784 125.581 38.2111C125.581 37.7589 125.849 36.5629 127.123 33.4574C127.235 33.2162 127.436 32.7036 127.771 31.8996C128.095 31.0956 128.363 30.4423 128.565 29.9297C128.687 29.6483 128.643 29.3569 128.442 29.1157C128.24 28.8744 127.95 28.7438 127.603 28.7438C127.179 28.7438 126.843 28.9448 126.698 29.3066C125.066 33.3267 123.994 35.789 123.513 36.6433C122.742 38.0604 121.87 38.784 120.943 38.784C120.44 38.784 119.97 38.6634 119.97 37.7488C119.97 37.4172 120.06 37.0152 120.227 36.5528C120.417 36.0503 120.931 34.7739 121.77 32.7639C122.228 31.6483 122.63 30.7036 122.954 29.9398C123.077 29.6684 123.044 29.377 122.865 29.1257C122.675 28.8744 122.384 28.7337 122.027 28.7337C121.602 28.7337 121.267 28.9348 121.121 29.2865C121.021 29.5177 120.875 29.8493 120.685 30.2915C119.791 32.3518 119.154 33.8895 118.752 34.8845C118.473 35.4574 118.238 35.9096 118.059 36.2212C117.869 36.5629 117.601 36.985 117.266 37.4875C116.953 37.9498 116.64 38.2915 116.338 38.5026C116.059 38.6935 115.79 38.784 115.511 38.784C115.388 38.784 115.187 38.784 115.187 38.2111C115.187 37.98 115.232 37.7187 115.31 37.4172C115.444 36.8644 116.394 34.3518 118.137 29.9398C118.294 29.5076 118.115 29.2262 117.981 29.0956C117.78 28.8946 117.512 28.784 117.187 28.784C116.763 28.784 116.427 28.9951 116.282 29.3669C115.388 31.4574 114.684 33.1961 114.181 34.583C114.148 34.6332 114.114 34.6835 114.092 34.7438C113.388 36.2212 112.762 37.2966 112.225 37.9398C111.756 38.5026 111.287 38.784 110.817 38.784C110.694 38.784 110.493 38.784 110.493 38.2111C110.493 37.6081 110.817 36.5327 111.454 34.985C112.147 33.3267 112.471 32.1307 112.471 31.3167C112.471 29.6483 111.454 28.7337 109.599 28.7337C108.928 28.7337 108.247 28.975 107.576 29.4473C107.218 29.6986 106.894 29.9699 106.593 30.2815C106.47 29.9699 106.28 29.6986 106.034 29.4574C105.531 28.985 104.838 28.7438 103.955 28.7438C103.363 28.7438 102.77 28.9448 102.178 29.3468C102.145 29.2865 102.111 29.2262 102.066 29.1659C101.865 28.9247 101.586 28.794 101.251 28.794C100.803 28.794 100.468 29.0051 100.312 29.387C99.8759 30.4624 99.2277 32.1006 98.3112 34.4021C98.2554 34.5428 98.1995 34.6835 98.1436 34.8242C97.4619 36.2312 96.7243 37.2664 95.942 37.9096C95.182 38.5327 94.3438 38.8342 93.3938 38.8041C92.7345 38.794 92.2651 38.6332 91.941 38.3317C91.6169 38.0202 91.4828 37.6081 91.5051 37.0453C91.5163 36.6634 91.5833 36.2614 91.7063 35.8393C92.4215 35.6785 93.1144 35.4775 93.7738 35.2463C94.5114 34.985 95.249 34.6634 95.9643 34.2815C96.7131 33.8795 97.3166 33.3971 97.7748 32.8342C98.2554 32.2513 98.4901 31.6081 98.4901 30.9348C98.4901 30.2714 98.233 29.7388 97.7189 29.3569C97.2384 28.9951 96.6013 28.8141 95.8525 28.8141C94.7685 28.8141 93.7068 29.3066 92.7121 30.2915C91.7733 31.2162 91.0134 32.3116 90.4434 33.5378C90.2199 34.0202 90.0411 34.4825 89.9069 34.9448C89.2029 36.3619 88.5994 37.377 88.0964 37.98C87.6382 38.5327 87.1688 38.8041 86.6994 38.8041C86.5765 38.8041 86.3753 38.8041 86.3753 38.2413C86.4089 37.8091 86.4759 37.4172 86.5877 37.0654L86.5989 37.0453C86.6659 36.784 86.923 36.0503 87.37 34.8443C87.817 33.6383 88.13 32.8342 88.3088 32.4322L88.32 32.4121C88.51 31.8694 88.2864 31.4272 87.7388 31.2363H87.7276C87.4706 31.1559 87.1353 31.0654 86.7442 30.9549C85.8724 30.6935 85.2242 30.4724 84.7995 30.3116C85.0789 29.4674 85.1236 29.1961 85.1236 29.0453C85.1236 28.4825 84.956 28.0202 84.6207 27.6684C84.2631 27.2966 83.7825 27.1157 83.1902 27.1157C82.6426 27.1157 82.162 27.2865 81.7709 27.6383C81.3685 27.99 81.1674 28.4523 81.1674 29.0252C81.1674 29.8192 81.5809 30.5126 82.3855 31.1056L82.2067 31.5076L80.1392 35.5076L80.1168 35.5478C80.0609 35.6885 80.0386 35.789 80.0386 35.8895C80.0386 36.2212 80.2286 36.5026 80.575 36.6734L80.6197 36.6935L80.6644 36.7036C80.8097 36.7538 80.9438 36.7739 81.0668 36.7739C81.4468 36.7739 81.7485 36.593 81.9273 36.2714L81.9385 36.2614C83.2908 33.6081 83.8608 32.4724 84.1178 31.9599C84.5648 32.1207 85.2242 32.3418 86.1183 32.6031C85.973 32.975 85.7607 33.5579 85.4701 34.3418C85.0454 35.4875 84.7995 36.2212 84.6878 36.583C84.509 37.176 84.4084 37.7187 84.4084 38.2011C84.4084 38.8845 84.5984 39.4373 84.9895 39.8694C85.3919 40.3217 85.973 40.5528 86.6883 40.5528H86.7106C87.7053 40.5528 88.6105 40.1307 89.4264 39.2865C89.5828 39.1257 89.7393 38.9348 89.9069 38.7337C90.0634 39.0353 90.2757 39.3167 90.5328 39.5579C91.2257 40.2212 92.1868 40.5528 93.3715 40.5528C94.4332 40.5528 95.4055 40.3116 96.2884 39.8292C96.3219 40.1508 96.5566 40.4021 96.959 40.5327L96.9813 40.5428C97.1043 40.5729 97.216 40.593 97.3278 40.593C97.7413 40.593 98.0766 40.3719 98.233 39.9699L99.9318 35.6383C99.9653 35.578 99.9988 35.5177 100.032 35.4574L100.055 35.4172C100.066 35.387 100.077 35.3669 100.077 35.3468C100.2 35.1257 100.446 34.7036 100.949 33.8694C101.508 32.9549 101.899 32.3418 102.111 32.0403C103.195 30.6734 103.787 30.5227 103.989 30.5227C104.492 30.5227 104.827 30.6734 104.827 31.4172C104.827 31.7689 104.67 32.593 103.933 34.5428C103.877 34.6634 103.642 35.2564 102.178 39.2162C102.055 39.4976 102.1 39.779 102.301 40.0302C102.491 40.2714 102.782 40.4021 103.117 40.4021C103.564 40.4021 103.899 40.191 104.056 39.8091H104.045C104.089 39.7287 104.123 39.6282 104.156 39.5277C104.223 39.3468 104.324 39.0654 104.458 38.6935C104.726 37.9498 105.017 37.176 105.319 36.392C105.676 35.4473 105.766 35.2463 105.777 35.1961L105.788 35.1659C106.224 34.1106 106.861 33.0353 107.677 31.98C108.627 30.7739 109.252 30.5126 109.621 30.5126C110.27 30.5126 110.515 30.7337 110.515 31.3167C110.515 31.7086 110.348 32.583 109.532 34.5428C108.839 36.2312 108.493 37.4272 108.493 38.2111C108.493 38.8946 108.683 39.4473 109.074 39.8795C109.476 40.3317 110.068 40.5629 110.828 40.5629C111.443 40.5629 112.046 40.392 112.594 40.0704C112.896 39.8895 113.175 39.6684 113.443 39.3971C113.533 39.5679 113.633 39.7187 113.768 39.8594C114.192 40.3317 114.785 40.5629 115.522 40.5629C116.126 40.5629 116.696 40.4121 117.221 40.1207C117.612 39.8996 117.97 39.6081 118.316 39.2262C118.841 40.2915 119.959 40.5629 120.943 40.5629H120.965C121.613 40.5629 122.261 40.392 122.887 40.0503C123.245 39.8594 123.569 39.6282 123.848 39.3669C124.295 40.3317 125.178 40.5629 125.916 40.5629C126.441 40.5629 126.955 40.4423 127.425 40.2011C127.536 40.3518 127.715 40.4724 127.95 40.5428L127.972 40.5528C128.095 40.583 128.207 40.6031 128.319 40.6031C128.732 40.6031 129.067 40.382 129.224 39.98L130.9 35.6986C130.945 35.6182 130.979 35.5378 131.023 35.4574L131.034 35.4272C131.046 35.4071 131.046 35.377 131.057 35.3569C131.18 35.1358 131.426 34.7136 131.928 33.8795C132.487 32.9649 132.878 32.3518 133.091 32.0503C134.175 30.6835 134.767 30.5327 134.968 30.5327C135.471 30.5327 135.807 30.6835 135.807 31.4272C135.807 31.779 135.65 32.6031 134.912 34.5528C134.857 34.6734 134.622 35.2664 133.158 39.2262C133.035 39.5076 133.08 39.789 133.281 40.0403C133.471 40.2815 133.761 40.4121 134.097 40.4121C134.544 40.4121 134.879 40.2011 135.035 39.8192H135.024C135.069 39.7388 135.102 39.6383 135.136 39.5378C135.203 39.3569 135.304 39.0755 135.438 38.7036C135.706 37.9599 135.997 37.186 136.298 36.4021C136.656 35.4574 136.745 35.2564 136.756 35.2061L136.768 35.176C137.204 34.1207 137.841 33.0453 138.656 31.99C139.606 30.784 140.232 30.5227 140.601 30.5227C141.249 30.5227 141.495 30.7438 141.495 31.3267C141.495 31.7187 141.327 32.593 140.512 34.5528C139.819 36.2413 139.472 37.4373 139.472 38.2212C139.472 38.9046 139.662 39.4574 140.053 39.8895C140.456 40.3418 141.048 40.5729 141.808 40.5729C142.423 40.5729 143.026 40.4021 143.574 40.0805C144.11 39.7689 144.602 39.2966 145.049 38.6734C145.463 38.0905 145.798 37.588 146.033 37.176C146.267 36.7639 146.558 36.2111 146.882 35.5277L146.904 35.4775C146.994 35.186 146.994 35.1458 146.994 35.0956C147.027 34.8342 146.927 34.6232 146.725 34.4523ZM93.9638 31.6483C94.5897 30.9247 95.2267 30.5528 95.8637 30.5528C96.5231 30.5528 96.5231 30.7538 96.5231 30.8946C96.5231 31.8895 95.1708 32.8443 92.578 33.6785C93.0027 32.9247 93.4609 32.2413 93.9638 31.6483ZM83.1455 29.0152C83.1455 28.975 83.1343 28.9348 83.1343 28.9046C83.1343 28.8946 83.1343 28.8946 83.1343 28.8845C83.1343 28.9147 83.1455 28.9448 83.1455 28.9951C83.1455 28.9951 83.1455 29.0051 83.1455 29.0152Z" fill="#3D3125"/>
<path d="M118.282 28.3919C118.64 28.3919 118.964 28.2713 119.221 28.0401C119.478 27.809 119.612 27.5175 119.612 27.1959C119.612 26.8743 119.478 26.5828 119.221 26.3517C118.964 26.1205 118.64 25.9999 118.282 25.9999C117.924 25.9999 117.6 26.1205 117.343 26.3416C117.075 26.5728 116.93 26.8642 116.93 27.1858C116.93 27.5075 117.075 27.809 117.343 28.0301C117.611 28.2813 117.924 28.3919 118.282 28.3919Z" stroke="#3D3125" stroke-width="0.5"/>
<path d="M79.122 23.4372C77.915 22.4824 76.3616 22 74.5064 22C71.8018 22 69.6337 22.8744 68.0802 24.6131C66.5491 26.3216 65.778 28.5226 65.778 31.1558C65.778 31.3769 65.8674 31.5879 66.0462 31.7688C66.2362 31.9497 66.482 32.0503 66.7614 32.0503C67.0408 32.0503 67.2867 31.9497 67.4767 31.7688C67.6555 31.598 67.7449 31.3869 67.7449 31.1558C67.7449 29.0452 68.3372 27.2663 69.5107 25.8693C70.6395 24.5226 72.1371 23.8492 74.0817 23.8191C73.9476 23.8894 73.8246 23.9799 73.6905 24.0804C73.1541 24.4724 72.7406 24.9347 72.4723 25.4472C71.9694 26.3317 71.2765 28.1106 70.3601 30.8945C70.0472 31.8392 69.8125 32.5528 69.656 33.0352C69.4884 33.5276 69.2537 34.1709 68.9519 34.9548C68.6502 35.7387 68.382 36.3417 68.1696 36.7538C67.9461 37.1658 67.6667 37.6482 67.3314 38.191C67.0073 38.7035 66.7056 39.0854 66.415 39.3266C66.1244 39.5678 65.7668 39.7789 65.3756 39.9598C64.9956 40.1206 64.6045 40.2111 64.191 40.2111C63.5428 40.2111 63.0175 40.0402 62.5928 39.6985C62.1793 39.3668 61.9781 38.9246 61.9781 38.3618C61.9781 37.7588 62.2017 37.2161 62.6711 36.7035C63.1181 36.2211 63.6098 35.9799 64.1574 35.9799C64.3698 35.9799 64.4257 36 64.4257 36L64.4592 36.01C64.7721 36.0905 65.0739 36.0402 65.3421 35.8593C65.5991 35.6784 65.7333 35.4372 65.7333 35.1558C65.7333 34.794 65.5321 34.201 64.2022 34.201C63.0622 34.201 62.0564 34.6332 61.2294 35.4774C60.4135 36.3116 60 37.2965 60 38.4121C60 39.4472 60.4023 40.3216 61.1958 40.995C61.9781 41.6583 62.984 42 64.1574 42C66.5379 42 68.5049 40.4724 70.0136 37.4472C70.416 36.6332 70.9524 35.2764 71.6006 33.397C71.6789 33.4472 71.7683 33.4975 71.8688 33.5276C72.7517 33.8392 73.6123 33.9899 74.4281 33.9899C76.328 33.9899 77.915 33.2965 79.1444 31.9397C80.3514 30.603 80.9549 29.0251 80.9549 27.2362C80.9661 25.6683 80.3514 24.402 79.122 23.4372ZM77.6803 30.6834C76.8198 31.6884 75.7916 32.1809 74.5175 32.1809C73.9364 32.1809 73.277 32.0603 72.5394 31.8291C72.4388 31.799 72.3271 31.7889 72.1929 31.7889C72.1706 31.7889 72.1594 31.7889 72.1371 31.7889C72.1818 31.6482 72.2377 31.4975 72.2824 31.3467C73.0758 28.8442 73.7352 27.1156 74.227 26.2312C74.6293 25.598 75.0428 25.2563 75.4563 25.206L75.501 25.196C76.0933 25.0754 76.3839 24.6834 76.3057 24.1709C76.2945 24.1206 76.2945 24.0804 76.2722 24.0402C76.831 24.191 77.3115 24.4121 77.725 24.6935C78.5632 25.2764 78.9656 26.0905 78.9656 27.196C78.9879 28.4824 78.5521 29.6583 77.6803 30.6834Z" stroke="#3D3125" stroke-width="0.5"/>
<path d="M146.725 34.4523C146.524 34.2815 146.29 34.181 146.033 34.181C145.597 34.181 145.261 34.382 145.105 34.7337C144.401 36.2111 143.775 37.2865 143.239 37.9297C142.769 38.4925 142.3 38.7739 141.83 38.7739C141.707 38.7739 141.506 38.7739 141.506 38.2011C141.506 37.5981 141.83 36.5227 142.467 34.975C143.16 33.3167 143.484 32.1207 143.484 31.3066C143.484 29.6383 142.467 28.7237 140.612 28.7237C139.942 28.7237 139.26 28.9649 138.589 29.4373C138.232 29.6885 137.908 29.9599 137.606 30.2714C137.483 29.9599 137.293 29.6885 137.047 29.4473C136.544 28.975 135.851 28.7337 134.968 28.7337C134.376 28.7337 133.784 28.9348 133.191 29.3368C133.158 29.2765 133.124 29.2162 133.08 29.1559C132.878 28.9147 132.599 28.784 132.264 28.784C131.817 28.784 131.481 28.9951 131.325 29.377C130.889 30.4523 130.241 32.0905 129.324 34.392C129.235 34.6232 129.146 34.8443 129.056 35.0554C128.386 36.382 127.793 37.3569 127.29 37.9498C126.821 38.5026 126.363 38.784 125.905 38.784C125.782 38.784 125.581 38.784 125.581 38.2111C125.581 37.7589 125.849 36.5629 127.123 33.4574C127.235 33.2162 127.436 32.7036 127.771 31.8996C128.095 31.0956 128.363 30.4423 128.565 29.9297C128.687 29.6483 128.643 29.3569 128.442 29.1157C128.24 28.8744 127.95 28.7438 127.603 28.7438C127.179 28.7438 126.843 28.9448 126.698 29.3066C125.066 33.3267 123.994 35.789 123.513 36.6433C122.742 38.0604 121.87 38.784 120.943 38.784C120.44 38.784 119.97 38.6634 119.97 37.7488C119.97 37.4172 120.06 37.0152 120.227 36.5528C120.417 36.0503 120.931 34.7739 121.77 32.7639C122.228 31.6483 122.63 30.7036 122.954 29.9398C123.077 29.6684 123.044 29.377 122.865 29.1257C122.675 28.8744 122.384 28.7337 122.027 28.7337C121.602 28.7337 121.267 28.9348 121.121 29.2865C121.021 29.5177 120.875 29.8493 120.685 30.2915C119.791 32.3518 119.154 33.8895 118.752 34.8845C118.473 35.4574 118.238 35.9096 118.059 36.2212C117.869 36.5629 117.601 36.985 117.266 37.4875C116.953 37.9498 116.64 38.2915 116.338 38.5026C116.059 38.6935 115.79 38.784 115.511 38.784C115.388 38.784 115.187 38.784 115.187 38.2111C115.187 37.98 115.232 37.7187 115.31 37.4172C115.444 36.8644 116.394 34.3518 118.137 29.9398C118.294 29.5076 118.115 29.2262 117.981 29.0956C117.78 28.8946 117.512 28.784 117.187 28.784C116.763 28.784 116.427 28.9951 116.282 29.3669C115.388 31.4574 114.684 33.1961 114.181 34.583C114.148 34.6332 114.114 34.6835 114.092 34.7438C113.388 36.2212 112.762 37.2966 112.225 37.9398C111.756 38.5026 111.287 38.784 110.817 38.784C110.694 38.784 110.493 38.784 110.493 38.2111C110.493 37.6081 110.817 36.5327 111.454 34.985C112.147 33.3267 112.471 32.1307 112.471 31.3167C112.471 29.6483 111.454 28.7337 109.599 28.7337C108.928 28.7337 108.247 28.975 107.576 29.4473C107.218 29.6986 106.894 29.9699 106.593 30.2815C106.47 29.9699 106.28 29.6986 106.034 29.4574C105.531 28.985 104.838 28.7438 103.955 28.7438C103.363 28.7438 102.77 28.9448 102.178 29.3468C102.145 29.2865 102.111 29.2262 102.066 29.1659C101.865 28.9247 101.586 28.794 101.251 28.794C100.803 28.794 100.468 29.0051 100.312 29.387C99.8759 30.4624 99.2277 32.1006 98.3112 34.4021C98.2554 34.5428 98.1995 34.6835 98.1436 34.8242C97.4619 36.2312 96.7243 37.2664 95.942 37.9096C95.182 38.5327 94.3438 38.8342 93.3938 38.8041C92.7345 38.794 92.2651 38.6332 91.941 38.3317C91.6169 38.0202 91.4828 37.6081 91.5051 37.0453C91.5163 36.6634 91.5833 36.2614 91.7063 35.8393C92.4215 35.6785 93.1144 35.4775 93.7738 35.2463C94.5114 34.985 95.249 34.6634 95.9643 34.2815C96.7131 33.8795 97.3166 33.3971 97.7748 32.8342C98.2554 32.2513 98.4901 31.6081 98.4901 30.9348C98.4901 30.2714 98.233 29.7388 97.7189 29.3569C97.2384 28.9951 96.6013 28.8141 95.8525 28.8141C94.7685 28.8141 93.7068 29.3066 92.7121 30.2915C91.7733 31.2162 91.0134 32.3116 90.4434 33.5378C90.2199 34.0202 90.0411 34.4825 89.9069 34.9448C89.2029 36.3619 88.5994 37.377 88.0964 37.98C87.6382 38.5327 87.1688 38.8041 86.6994 38.8041C86.5765 38.8041 86.3753 38.8041 86.3753 38.2413C86.4089 37.8091 86.4759 37.4172 86.5877 37.0654L86.5989 37.0453C86.6659 36.784 86.923 36.0503 87.37 34.8443C87.817 33.6383 88.13 32.8342 88.3088 32.4322L88.32 32.4121C88.51 31.8694 88.2864 31.4272 87.7388 31.2363H87.7276C87.4706 31.1559 87.1353 31.0654 86.7442 30.9549C85.8724 30.6935 85.2242 30.4724 84.7995 30.3116C85.0789 29.4674 85.1236 29.1961 85.1236 29.0453C85.1236 28.4825 84.956 28.0202 84.6207 27.6684C84.2631 27.2966 83.7825 27.1157 83.1902 27.1157C82.6426 27.1157 82.162 27.2865 81.7709 27.6383C81.3685 27.99 81.1674 28.4523 81.1674 29.0252C81.1674 29.8192 81.5809 30.5126 82.3855 31.1056L82.2067 31.5076L80.1392 35.5076L80.1168 35.5478C80.0609 35.6885 80.0386 35.789 80.0386 35.8895C80.0386 36.2212 80.2286 36.5026 80.575 36.6734L80.6197 36.6935L80.6644 36.7036C80.8097 36.7538 80.9438 36.7739 81.0668 36.7739C81.4468 36.7739 81.7485 36.593 81.9273 36.2714L81.9385 36.2614C83.2908 33.6081 83.8608 32.4724 84.1178 31.9599C84.5648 32.1207 85.2242 32.3418 86.1183 32.6031C85.973 32.975 85.7607 33.5579 85.4701 34.3418C85.0454 35.4875 84.7995 36.2212 84.6878 36.583C84.509 37.176 84.4084 37.7187 84.4084 38.2011C84.4084 38.8845 84.5984 39.4373 84.9895 39.8694C85.3919 40.3217 85.973 40.5528 86.6883 40.5528H86.7106C87.7053 40.5528 88.6105 40.1307 89.4264 39.2865C89.5828 39.1257 89.7393 38.9348 89.9069 38.7337C90.0634 39.0353 90.2757 39.3167 90.5328 39.5579C91.2257 40.2212 92.1868 40.5528 93.3715 40.5528C94.4332 40.5528 95.4055 40.3116 96.2884 39.8292C96.3219 40.1508 96.5566 40.4021 96.959 40.5327L96.9813 40.5428C97.1043 40.5729 97.216 40.593 97.3278 40.593C97.7413 40.593 98.0766 40.3719 98.233 39.9699L99.9318 35.6383C99.9653 35.578 99.9988 35.5177 100.032 35.4574L100.055 35.4172C100.066 35.387 100.077 35.3669 100.077 35.3468C100.2 35.1257 100.446 34.7036 100.949 33.8694C101.508 32.9549 101.899 32.3418 102.111 32.0403C103.195 30.6734 103.787 30.5227 103.989 30.5227C104.492 30.5227 104.827 30.6734 104.827 31.4172C104.827 31.7689 104.67 32.593 103.933 34.5428C103.877 34.6634 103.642 35.2564 102.178 39.2162C102.055 39.4976 102.1 39.779 102.301 40.0302C102.491 40.2714 102.782 40.4021 103.117 40.4021C103.564 40.4021 103.899 40.191 104.056 39.8091H104.045C104.089 39.7287 104.123 39.6282 104.156 39.5277C104.223 39.3468 104.324 39.0654 104.458 38.6935C104.726 37.9498 105.017 37.176 105.319 36.392C105.676 35.4473 105.766 35.2463 105.777 35.1961L105.788 35.1659C106.224 34.1106 106.861 33.0353 107.677 31.98C108.627 30.7739 109.252 30.5126 109.621 30.5126C110.27 30.5126 110.515 30.7337 110.515 31.3167C110.515 31.7086 110.348 32.583 109.532 34.5428C108.839 36.2312 108.493 37.4272 108.493 38.2111C108.493 38.8946 108.683 39.4473 109.074 39.8795C109.476 40.3317 110.068 40.5629 110.828 40.5629C111.443 40.5629 112.046 40.392 112.594 40.0704C112.896 39.8895 113.175 39.6684 113.443 39.3971C113.533 39.5679 113.633 39.7187 113.768 39.8594C114.192 40.3317 114.785 40.5629 115.522 40.5629C116.126 40.5629 116.696 40.4121 117.221 40.1207C117.612 39.8996 117.97 39.6081 118.316 39.2262C118.841 40.2915 119.959 40.5629 120.943 40.5629H120.965C121.613 40.5629 122.261 40.392 122.887 40.0503C123.245 39.8594 123.569 39.6282 123.848 39.3669C124.295 40.3317 125.178 40.5629 125.916 40.5629C126.441 40.5629 126.955 40.4423 127.425 40.2011C127.536 40.3518 127.715 40.4724 127.95 40.5428L127.972 40.5528C128.095 40.583 128.207 40.6031 128.319 40.6031C128.732 40.6031 129.067 40.382 129.224 39.98L130.9 35.6986C130.945 35.6182 130.979 35.5378 131.023 35.4574L131.034 35.4272C131.046 35.4071 131.046 35.377 131.057 35.3569C131.18 35.1358 131.426 34.7136 131.928 33.8795C132.487 32.9649 132.878 32.3518 133.091 32.0503C134.175 30.6835 134.767 30.5327 134.968 30.5327C135.471 30.5327 135.807 30.6835 135.807 31.4272C135.807 31.779 135.65 32.6031 134.912 34.5528C134.857 34.6734 134.622 35.2664 133.158 39.2262C133.035 39.5076 133.08 39.789 133.281 40.0403C133.471 40.2815 133.761 40.4121 134.097 40.4121C134.544 40.4121 134.879 40.2011 135.035 39.8192H135.024C135.069 39.7388 135.102 39.6383 135.136 39.5378C135.203 39.3569 135.304 39.0755 135.438 38.7036C135.706 37.9599 135.997 37.186 136.298 36.4021C136.656 35.4574 136.745 35.2564 136.756 35.2061L136.768 35.176C137.204 34.1207 137.841 33.0453 138.656 31.99C139.606 30.784 140.232 30.5227 140.601 30.5227C141.249 30.5227 141.495 30.7438 141.495 31.3267C141.495 31.7187 141.327 32.593 140.512 34.5528C139.819 36.2413 139.472 37.4373 139.472 38.2212C139.472 38.9046 139.662 39.4574 140.053 39.8895C140.456 40.3418 141.048 40.5729 141.808 40.5729C142.423 40.5729 143.026 40.4021 143.574 40.0805C144.11 39.7689 144.602 39.2966 145.049 38.6734C145.463 38.0905 145.798 37.588 146.033 37.176C146.267 36.7639 146.558 36.2111 146.882 35.5277L146.904 35.4775C146.994 35.186 146.994 35.1458 146.994 35.0956C147.027 34.8342 146.927 34.6232 146.725 34.4523ZM93.9638 31.6483C94.5897 30.9247 95.2267 30.5528 95.8637 30.5528C96.5231 30.5528 96.5231 30.7538 96.5231 30.8946C96.5231 31.8895 95.1708 32.8443 92.578 33.6785C93.0027 32.9247 93.4609 32.2413 93.9638 31.6483ZM83.1455 29.0152C83.1455 28.975 83.1343 28.9348 83.1343 28.9046C83.1343 28.8946 83.1343 28.8946 83.1343 28.8845C83.1343 28.9147 83.1455 28.9448 83.1455 28.9951C83.1455 28.9951 83.1455 29.0051 83.1455 29.0152Z" stroke="#3D3125" stroke-width="0.5"/>
<path d="M153.912 51.7368C153.859 51.5263 153.806 51.3421 153.753 51.1842C153.7 51.0132 153.577 50.8026 153.418 50.5395C153.259 50.2895 153.118 50.0921 153.013 49.9474L152.466 49.2105C152.272 48.9474 152.096 48.7105 151.972 48.5263C152.907 47.6974 153.383 46.8947 153.383 46.1447V46.1184C153.348 45.7632 153.189 45.4605 152.907 45.2237C152.625 44.9737 152.237 44.8421 151.761 44.8421C151.126 44.8421 150.561 45.0658 150.121 45.5132C149.697 45.9342 149.486 46.4342 149.486 47C149.486 47.3947 149.592 47.8158 149.821 48.2368C149.574 48.4211 149.327 48.6316 149.063 48.8553L149.045 48.8684C148.922 49 148.851 49.1447 148.851 49.2763C148.851 49.5526 149.01 49.7105 149.151 49.8026C149.309 49.9211 149.521 49.9737 149.786 49.9737C150.068 49.9737 150.315 49.8816 150.491 49.7105C150.544 49.6579 150.614 49.5921 150.667 49.5395C151.267 50.3421 151.672 50.9079 151.866 51.2632C152.078 51.6316 152.184 52.0132 152.201 52.3684C152.184 53.1184 151.866 53.6974 151.249 54.1316C150.614 54.5789 149.821 54.7895 148.833 54.7895C148.128 54.7895 147.528 54.6184 147.035 54.2763C146.541 53.9342 146.312 53.5263 146.294 53.0132C146.347 52.4605 146.576 52 146.982 51.6579C147.37 51.3158 147.863 51.1579 148.463 51.1579C148.71 51.1579 148.939 51.2368 149.151 51.4079C149.38 51.5921 149.486 51.8026 149.503 52.0526C149.503 52.2368 149.592 52.4079 149.768 52.5395C149.944 52.6711 150.156 52.7368 150.42 52.7368C150.667 52.7368 150.896 52.6711 151.073 52.5395C151.249 52.4079 151.337 52.25 151.337 52.0395C151.302 51.4211 151.002 50.8947 150.456 50.4605C149.909 50.0132 149.221 49.7895 148.445 49.7895C147.299 49.7895 146.365 50.0921 145.677 50.6711C145.536 50.7895 145.395 50.9342 145.271 51.0658C145.201 51.1184 145.148 51.1711 145.095 51.2368L145.077 51.2632C144.372 52.4342 143.684 53.3289 143.014 53.9342C142.397 54.5 141.727 54.7763 140.969 54.7763C140.792 54.7763 140.475 54.7763 140.475 54.2105C140.475 53.8947 140.722 52.9868 141.886 50.5263C142.785 48.6316 143.138 47.8684 143.279 47.5789H145.183C145.43 47.5789 145.659 47.5132 145.836 47.3816C146.012 47.25 146.1 47.0921 146.1 46.8947C146.1 46.7237 146.012 46.5658 145.853 46.4342C145.677 46.2895 145.448 46.2237 145.201 46.2237H143.931L145.007 43.9211C145.113 43.7105 145.077 43.4868 144.901 43.2895C144.725 43.1053 144.46 43 144.16 43C143.737 43 143.437 43.1579 143.296 43.4605C143.279 43.5 143.049 43.9868 142.609 44.9342C142.291 45.6184 142.097 46.0263 142.009 46.2237H140.228C139.964 46.2237 139.752 46.3026 139.576 46.4342C139.417 46.5658 139.329 46.7237 139.329 46.8947C139.329 46.9342 139.329 46.9737 139.346 47.0132C139.241 46.8947 139.117 46.8026 138.976 46.7105C138.5 46.4211 137.883 46.2632 137.125 46.2632C136.031 46.2632 134.973 46.6711 133.986 47.5C133.034 48.2763 132.258 49.2105 131.693 50.2368C131.429 50.7237 131.217 51.1842 131.059 51.6447C130.829 52.0789 130.512 52.4868 130.071 52.8553C129.56 53.2895 129.048 53.5 128.502 53.5C128.184 53.5 127.937 53.4474 127.708 53.3289C128.149 52.7763 128.59 52.0658 128.978 51.2105C129.419 50.25 129.648 49.4211 129.648 48.7368C129.648 46.6579 128.255 46.2237 127.073 46.2237C126.386 46.2237 125.733 46.3947 125.081 46.7368C125.046 46.6579 125.01 46.5789 124.94 46.5132C124.763 46.3289 124.499 46.2237 124.199 46.2237C123.776 46.2237 123.476 46.3816 123.335 46.6711L123.176 46.9868C123.088 47.1711 122.877 47.6053 122.559 48.2368C122.242 48.8684 121.801 49.7632 121.237 50.9605C121.06 51.3421 120.884 51.6974 120.725 52.0395C120.161 52.9474 119.65 53.6184 119.209 54.0395C118.715 54.5263 118.204 54.7763 117.692 54.7763C117.534 54.7763 117.251 54.7763 117.251 54.2237C117.287 53.8553 117.357 53.5132 117.481 53.1974V53.1842C117.551 52.9605 117.816 52.3289 118.274 51.3026C118.733 50.2763 119.068 49.5921 119.226 49.25V49.2368C119.403 48.8158 119.209 48.4737 118.68 48.3289C118.415 48.2632 118.08 48.1842 117.675 48.0921C116.722 47.8553 116.017 47.6579 115.576 47.5132C115.876 46.75 115.929 46.5132 115.929 46.3947C115.929 45.9342 115.77 45.5658 115.435 45.2763C115.1 44.9737 114.624 44.8289 114.042 44.8289C113.513 44.8289 113.037 44.9737 112.667 45.25C112.279 45.5263 112.085 45.9079 112.085 46.3816C112.085 47.0395 112.508 47.6316 113.354 48.1316L113.143 48.5263L111.52 51.1711C111.485 51.2105 111.468 51.25 111.432 51.2895L111.397 51.3684C111.15 51.7763 110.956 52.0789 110.815 52.3158C110.674 52.5395 110.462 52.8421 110.18 53.2105C109.898 53.5789 109.651 53.8684 109.44 54.0658C109.228 54.2632 108.981 54.4342 108.681 54.5921C108.417 54.7368 108.188 54.8026 107.941 54.8026C107.782 54.8026 107.5 54.8026 107.5 54.2368C107.5 54.1579 107.5 54.0658 107.518 53.9605C107.535 53.8553 107.571 53.7368 107.606 53.5921C107.641 53.4474 107.694 53.3158 107.729 53.1842C107.765 53.0658 107.835 52.8947 107.923 52.6974C108.011 52.4868 108.082 52.3158 108.152 52.1974C108.223 52.0658 108.311 51.8684 108.417 51.6184C108.54 51.3684 108.629 51.1711 108.681 51.0395C108.734 50.9079 108.84 50.6842 108.981 50.3947C109.122 50.1053 109.228 49.8947 109.299 49.7632L110.621 47.1184C110.727 46.9211 110.709 46.7237 110.551 46.5263C110.392 46.3158 110.11 46.2105 109.775 46.2105C109.369 46.2105 109.052 46.3553 108.911 46.6316C108.823 46.7895 108.752 46.9211 108.699 47.0395C108.152 46.5526 107.377 46.3158 106.389 46.3158C105.296 46.3158 104.238 46.7763 103.233 47.6842C102.28 48.5526 101.522 49.5658 100.993 50.6974C100.87 50.9605 100.764 51.2105 100.676 51.4737C100.006 52.5658 99.2651 53.4079 98.4716 53.9737C97.6604 54.5526 96.7082 54.8289 95.562 54.8289C95.033 54.8289 94.6098 54.6974 94.2924 54.4079C93.9573 54.1184 93.7986 53.7237 93.7986 53.2368C93.7986 52.5132 94.0455 51.6974 94.5569 50.8158C95.0506 49.9211 95.6854 49.1711 96.4437 48.5526C97.149 47.9737 97.7838 47.6842 98.3481 47.6842C98.7537 47.6842 99.1416 47.7763 99.1416 48.4474C99.1416 48.7105 99.0535 48.9605 98.8595 49.2105C98.5245 49.6711 98.5068 49.7632 98.5068 49.8553C98.5068 50.2632 98.8419 50.5132 99.4238 50.5132C99.8646 50.5132 100.253 50.2763 100.552 49.8026C100.817 49.3947 100.958 48.9342 100.958 48.4474C100.958 47.8158 100.729 47.3026 100.288 46.9211C99.8294 46.5263 99.1769 46.3289 98.3481 46.3289C97.3783 46.3289 96.3732 46.6974 95.368 47.4079C94.3982 48.1053 93.587 48.9868 92.9522 50.0526C92.3174 51.1184 92 52.1842 92 53.2237C92 54.1053 92.3174 54.8158 92.9522 55.3553C93.6047 55.9079 94.4687 56.1842 95.5444 56.1842C97.1138 56.1842 98.4539 55.8158 99.5472 55.0921C99.8117 54.9211 100.059 54.7237 100.305 54.5132C100.411 54.8816 100.588 55.2105 100.834 55.4737C101.275 55.9474 101.91 56.1842 102.739 56.1842C103.797 56.1842 104.82 55.7632 105.79 54.9211C105.878 55.1974 106.036 55.4211 106.248 55.6316C106.636 56 107.218 56.1842 107.941 56.1842C108.47 56.1842 108.981 56.0658 109.457 55.8553C109.916 55.6447 110.304 55.4211 110.621 55.1711C110.939 54.9211 111.256 54.5789 111.644 54.0921C111.997 53.6316 112.261 53.2763 112.42 53.0395C112.579 52.8026 112.79 52.4342 113.09 51.9474L113.125 51.8816C114.289 49.9868 114.765 49.1974 114.977 48.8553C115.453 49 116.193 49.1974 117.216 49.4605C117.075 49.7763 116.828 50.2895 116.511 51.0132C116.088 51.9868 115.823 52.6184 115.717 52.9211C115.541 53.4211 115.435 53.8684 115.435 54.2763C115.435 54.8421 115.629 55.3026 115.999 55.6447C116.387 56.0132 116.952 56.1974 117.657 56.1974H117.692C118.08 56.1974 118.451 56.1447 118.803 56.0395L116.793 60.0789C116.687 60.2895 116.722 60.5132 116.899 60.7105C117.075 60.8947 117.34 61 117.639 61C118.063 61 118.362 60.8421 118.503 60.5526C118.68 60.1579 119.438 58.5789 120.796 55.7368C121.201 56.0395 121.801 56.2105 122.594 56.25C124.023 56.2895 125.381 55.7105 126.633 54.5263C127.109 54.7895 127.708 54.9211 128.396 54.9211C129.242 54.9211 130.053 54.6842 130.794 54.1974C130.953 54.6447 131.235 55.0395 131.641 55.3553C132.328 55.8947 133.28 56.1711 134.48 56.1711C135.908 56.1711 137.177 55.8158 138.271 55.1053C138.412 55.0132 138.553 54.9079 138.694 54.8026C138.782 55.1184 138.958 55.3947 139.223 55.6184C139.629 55.9868 140.21 56.1711 140.933 56.1711C142.168 56.1711 143.226 55.7895 144.125 55.0526C144.354 54.8553 144.601 54.6184 144.848 54.3684C145.06 54.6974 145.359 55 145.73 55.2632C146.576 55.8684 147.599 56.1711 148.798 56.1711C150.244 56.1711 151.478 55.8289 152.466 55.1447C153.453 54.4605 153.982 53.5395 154 52.4211C154 52.1842 153.965 51.9474 153.912 51.7368ZM151.496 46.3816C151.461 46.5263 151.39 46.6711 151.284 46.8289C151.32 46.6447 151.373 46.5 151.496 46.3816ZM137.072 47.6711C137.865 47.6711 137.865 47.9079 137.865 48.0395C137.865 48.9605 136.402 49.8026 133.51 50.5526C133.951 49.8289 134.48 49.1974 135.044 48.6447C135.696 48 136.366 47.6711 137.072 47.6711ZM125.504 51.4342C125.222 52.1579 125.222 52.8158 125.504 53.3816C124.587 54.3947 123.617 54.8947 122.647 54.8816C122.436 54.8816 121.977 54.8684 121.977 54.1184C121.977 54.0132 121.977 53.9211 121.995 53.8289C121.995 53.7368 122.013 53.6711 122.03 53.6184C122.048 53.5658 122.065 53.4868 122.118 53.3947C122.154 53.2895 122.189 53.2105 122.224 53.1579C122.242 53.1053 122.295 53 122.383 52.8421C122.453 52.6842 122.524 52.5658 122.559 52.4868C122.859 51.9342 123.088 51.5 123.265 51.1842C123.441 50.8684 123.705 50.4474 124.058 49.9211C124.411 49.4079 124.728 49 125.01 48.7105C125.292 48.4342 125.627 48.1711 126.015 47.9605C126.368 47.7632 126.721 47.6579 127.038 47.6579C127.214 47.6579 127.708 47.6579 127.708 48.7763C127.708 49.4605 127.479 50.25 127.003 51.1579C126.827 51.0132 126.597 50.9342 126.333 50.9342C125.91 50.9211 125.592 51.1053 125.504 51.4342ZM114.007 46.2368C114.024 46.2368 114.024 46.2368 114.042 46.2368C114.042 46.25 114.077 46.2895 114.077 46.4211C114.077 46.4605 114.06 46.5395 113.989 46.7368C113.901 46.6184 113.848 46.4868 113.848 46.3421C113.848 46.2368 113.866 46.2368 114.007 46.2368ZM102.351 51.9474C102.369 51.9211 102.386 51.9079 102.386 51.8816L102.404 51.8553C102.457 51.75 102.474 51.6842 102.474 51.6316C102.527 51.5132 102.58 51.3947 102.633 51.2763C103.056 50.3553 103.638 49.5 104.361 48.75C105.049 48.0526 105.719 47.6842 106.354 47.6711C106.724 47.6711 107.042 47.7632 107.288 47.9737C107.535 48.1711 107.676 48.4474 107.694 48.8026L107.094 50.0132L106.513 51.0921C106.371 51.3553 106.16 51.7105 105.878 52.1579C105.596 52.6053 105.349 52.9605 105.119 53.2237C104.89 53.4868 104.626 53.7763 104.326 54.0658C104.061 54.3289 103.779 54.5263 103.48 54.6447C103.197 54.7632 102.915 54.8158 102.651 54.8158C102.192 54.8158 101.963 54.4211 101.963 53.6447C101.981 53.1579 102.122 52.5921 102.351 51.9474ZM139.54 47.4342C139.717 47.5658 139.928 47.6316 140.193 47.6316H141.357L140.175 50.0921C139.964 50.5132 139.752 50.9079 139.593 51.2763C139.576 51.2895 139.576 51.3026 139.558 51.3158V51.3289C138.835 52.5658 138.059 53.4737 137.23 54.0395C136.437 54.5921 135.555 54.8421 134.532 54.8158C133.827 54.8026 133.316 54.6579 132.963 54.3816C132.61 54.1053 132.452 53.7237 132.487 53.2237C132.505 52.8816 132.575 52.5132 132.716 52.1316C133.474 51.9868 134.197 51.8158 134.885 51.6184C135.643 51.3947 136.384 51.1184 137.125 50.8026C137.883 50.4737 138.482 50.0658 138.941 49.5921C139.417 49.1053 139.664 48.5789 139.664 48.0263C139.664 47.8289 139.629 47.6184 139.54 47.4342Z" fill="#5A4F43"/>
</g>
<defs>
<clipPath id="clip0">
<rect width="201" height="62" fill="white"/>
</clipPath>
</defs>
</svg>
