<svg width="30" height="30" viewBox="0 0 30 30" fill="none" xmlns="http://www.w3.org/2000/svg">
<path d="M25 15C25 20.5229 20.5232 25 15 25C9.4775 25 5 20.5229 5 15C5 9.47644 9.4775 5 15 5C20.5232 5 25 9.47644 25 15Z" fill="#707070"/>
<path fill-rule="evenodd" clip-rule="evenodd" d="M9.85444 14.7792C12.5388 13.4856 14.3288 12.6327 15.2244 12.2207C17.7816 11.0442 18.3129 10.8398 18.6593 10.8331C18.7355 10.8316 18.9058 10.8525 19.0161 10.9515C19.1093 11.0351 19.1349 11.1481 19.1471 11.2273C19.1594 11.3066 19.1747 11.4872 19.1625 11.6283C19.024 13.2388 18.4244 17.1471 18.1193 18.9509C17.9902 19.7142 17.7361 19.9701 17.49 19.9951C16.9553 20.0496 16.5492 19.6042 16.0313 19.2287C15.2209 18.6411 14.7631 18.2753 13.9764 17.7019C13.0673 17.0392 13.6566 16.675 14.1747 16.0798C14.3103 15.924 16.6663 13.5536 16.7119 13.3386C16.7177 13.3117 16.7229 13.2114 16.6691 13.1585C16.6153 13.1056 16.5358 13.1237 16.4785 13.1381C16.3972 13.1585 15.1025 14.105 12.5944 15.9777C12.2269 16.2568 11.8941 16.3928 11.5958 16.3857C11.2671 16.3778 10.6346 16.18 10.1645 16.011C9.58782 15.8037 9.12951 15.694 9.16941 15.3419C9.1902 15.1585 9.41854 14.9709 9.85444 14.7792Z" fill="black"/>
</svg>
