<svg width="30" height="30" viewBox="0 0 30 30" fill="none" xmlns="http://www.w3.org/2000/svg">
<path d="M25 14.9997C25 20.523 20.5225 25 15 25C9.4775 25 5 20.523 5 14.9997C5 9.47704 9.4775 5 15 5C20.5225 5 25 9.47704 25 14.9997Z" fill="#707070"/>
<path d="M12.8804 18.6555L13.0767 18.7731C13.8002 19.204 14.6223 19.4316 15.4553 19.4316C18.0226 19.4316 20.1126 17.3416 20.1126 14.7737C20.1126 12.205 18.0226 10.115 15.4553 10.115C12.8865 10.115 10.7965 12.205 10.7965 14.7737C10.7965 15.6219 11.0325 16.4568 11.4777 17.1888L11.5988 17.387L11.133 19.1238L12.8804 18.6555ZM9.59766 20.6592L10.432 17.5481C9.95944 16.6964 9.71118 15.7421 9.71118 14.7737C9.71118 11.6065 12.2881 9.0298 15.4553 9.0298C18.6217 9.0298 21.1987 11.6065 21.1987 14.7737C21.1987 17.9408 18.6217 20.5176 15.4553 20.5176C14.504 20.5176 13.565 20.2769 12.7245 19.8214L9.59766 20.6592Z" fill="black"/>
<path fill-rule="evenodd" clip-rule="evenodd" d="M17.5917 15.5723C17.3551 15.4307 17.0473 15.2731 16.7683 15.3866C16.5556 15.474 16.4188 15.8087 16.2807 15.9797C16.2095 16.0671 16.1247 16.0805 16.0153 16.0372C15.2131 15.7171 14.5989 15.1814 14.1558 14.4441C14.0812 14.3292 14.0942 14.2392 14.1852 14.1328C14.3185 13.9752 14.4868 13.7962 14.5223 13.5846C14.5586 13.3723 14.4587 13.1243 14.3719 12.9354C14.259 12.6937 14.1346 12.3496 13.8925 12.2128C13.6702 12.0872 13.3768 12.158 13.1792 12.3189C12.8372 12.5975 12.6724 13.0335 12.6779 13.4657C12.6792 13.5886 12.6936 13.7116 12.7223 13.8296C12.7921 14.1149 12.9234 14.3813 13.0718 14.6346C13.1833 14.8256 13.305 15.0105 13.4363 15.1889C13.8651 15.7713 14.3992 16.2776 15.0175 16.6562C15.3259 16.8453 15.6583 17.0115 16.003 17.125C16.3894 17.2527 16.7334 17.3855 17.1506 17.3061C17.5869 17.2234 18.0178 16.9535 18.1915 16.5327C18.2421 16.4077 18.2681 16.2687 18.2393 16.1374C18.1798 15.8654 17.8112 15.7038 17.5917 15.5723Z" fill="black"/>
</svg>
